<svg width="24" height="24" viewBox="0 0 24 24" fill="none" xmlns="http://www.w3.org/2000/svg">
<path d="M11.9027 5.9809C11.3094 5.9809 10.7293 6.15684 10.236 6.48649C9.74265 6.81613 9.35814 7.28467 9.13107 7.83285C8.90401 8.38102 8.8446 8.98422 8.96036 9.56617C9.07611 10.1481 9.36183 10.6827 9.78139 11.1022C10.2009 11.5218 10.7355 11.8075 11.3174 11.9233C11.8994 12.039 12.5026 11.9796 13.0508 11.7525C13.5989 11.5255 14.0675 11.141 14.3971 10.6476C14.7268 10.1543 14.9027 9.57424 14.9027 8.9809C14.9018 8.18552 14.5854 7.42299 14.023 6.86058C13.4606 6.29816 12.6981 5.9818 11.9027 5.9809V5.9809ZM11.9027 10.4809C11.606 10.4809 11.316 10.3929 11.0694 10.2281C10.8227 10.0633 10.6304 9.82901 10.5169 9.55492C10.4034 9.28083 10.3737 8.97923 10.4315 8.68826C10.4894 8.39729 10.6323 8.13001 10.8421 7.92024C11.0518 7.71046 11.3191 7.5676 11.6101 7.50972C11.901 7.45184 12.2026 7.48155 12.4767 7.59508C12.7508 7.70861 12.9851 7.90087 13.1499 8.14754C13.3147 8.39421 13.4027 8.68422 13.4027 8.9809C13.4023 9.37858 13.2441 9.75984 12.9629 10.041C12.6817 10.3223 12.3004 10.4804 11.9027 10.4809V10.4809Z" fill="#363853"/>
<path d="M17.6674 3.21164C16.2421 1.78666 14.3394 0.940164 12.3267 0.835526C10.3139 0.730889 8.33372 1.37553 6.7683 2.64503C5.20288 3.91453 4.1632 5.71889 3.84991 7.70987C3.53662 9.70086 3.97194 11.7373 5.07184 13.4262L10.7394 22.1268C10.8655 22.3204 11.0379 22.4795 11.2411 22.5896C11.4442 22.6997 11.6716 22.7574 11.9027 22.7574C12.1337 22.7574 12.3611 22.6997 12.5643 22.5896C12.7674 22.4795 12.9399 22.3204 13.066 22.1268L18.7337 13.4262C19.7543 11.8595 20.2053 9.98962 20.0112 8.12993C19.8171 6.27023 18.9896 4.53379 17.6674 3.21164V3.21164ZM17.4769 12.6075L11.9027 21.1645L6.32846 12.6075C4.62221 9.98812 4.98817 6.48281 7.1986 4.27228C7.81635 3.65452 8.54972 3.16448 9.35685 2.83015C10.164 2.49582 11.0291 2.32374 11.9027 2.32374C12.7763 2.32374 13.6414 2.49582 14.4485 2.83015C15.2557 3.16448 15.989 3.65452 16.6068 4.27228C18.8172 6.48281 19.1831 9.98812 17.4769 12.6075Z" fill="#363853"/>
</svg>
